<svg width="21" height="21" viewBox="0 0 21 21" fill="none" xmlns="http://www.w3.org/2000/svg">
<path fill-rule="evenodd" clip-rule="evenodd" d="M11.2195 0.769928V3.07709C14.6297 3.52393 17.3305 6.22478 17.7773 9.63495H20.0845V11.6349H17.7773C17.3305 15.0451 14.6297 17.746 11.2195 18.1928V20.5H9.21948V18.1928C5.80931 17.746 3.10846 15.0451 2.66162 11.6349H0.354462L0.354462 9.63495H2.66162C3.10846 6.22478 5.80932 3.52393 9.21948 3.07709V0.769928H11.2195ZM11.2195 16.1692V14.0157H9.21948V16.1692C6.91565 15.7556 5.09881 13.9388 4.68528 11.6349H6.83881V9.63495H4.68528C5.09881 7.33112 6.91565 5.51427 9.21948 5.10074V7.25427H11.2195V5.10074C13.5233 5.51427 15.3402 7.33112 15.7537 9.63495H13.6002V11.6349H15.7537C15.3402 13.9388 13.5233 15.7556 11.2195 16.1692Z" fill="#31C4D8"/>
</svg>
