<svg width="93" height="81" viewBox="0 0 93 81" fill="none" xmlns="http://www.w3.org/2000/svg">
<path fill-rule="evenodd" clip-rule="evenodd" d="M42.2 24.27L37.92 19.95L34.64 23.27V49.92L42.11 56.54L42.19 56.47V24.27H42.2ZM24.95 25.27L19.61 19.95L16.1 23.57V50L22.58 55.62L24.95 52.92V25.27ZM84.35 11.78L93 19.78V53.54L79.61 63.78C78.31 62.15 76.71 60.76 74.8 60.21V76.36L74.64 76.44L70.44 72.48L61.57 80.78L61.41 80.7V59.82C58.3115 60.6142 55.5666 62.4195 53.61 64.95L53 64.56C53.53 58.58 56.44 54.16 61.41 52.46V37.31H59.81C58.857 37.2854 57.9262 37.5994 57.1828 38.1963C56.4395 38.7932 55.9318 39.6342 55.75 40.57H54.84C54.4368 39.4246 54.2535 38.2134 54.3 37C54.3 33.2 56.82 30.32 60.95 30.32H61.41V21.94L58.66 19.46L56.52 21.63L55.45 20.62L63.94 11.77L71.13 18.45V26.05L73.35 23.65V14.72H74.8V22.09L84.36 11.77L84.35 11.78ZM73.35 25.13L71.13 27.46V71.16L73.35 73.26V25.12V25.13ZM15.1 0L15.78 0.62C13.27 1.85 11.21 3.39 11.21 6.7C11.21 11.79 16.09 10.48 16.09 18.49V21.57L25.01 12.1L34.4 21.42L43.25 12.09L51.79 20.57V49.07L36.1 63.71L25.5 54.46L17.4 63.71L6.42 54.16V39.06H4.27C2.37 39.06 1.45 40.21 1.14 41.76H0.38C0.23 41.14 0 40.06 0 38.83C0 36.83 0.84 31.59 6.4 31.59V19.88C6.4 15.33 3.43 15.1 3.43 11.18C3.43 6.77 7.55 2.7 15.11 0H15.1ZM78.84 19.16L74.8 23.5V51.68C78.4 52.14 81.07 53.38 83.29 55.79L83.36 55.71V23.35L78.86 19.15L78.84 19.16Z" fill="white"/>
</svg>
